<?xml version="1.0" encoding="UTF-8" standalone="no"?>
<!-- Created with Inkscape (http://www.inkscape.org/) -->

<svg
   width="76.157631mm"
   height="92.064911mm"
   viewBox="0 0 76.157631 92.064911"
   version="1.1"
   id="svg1"
   xmlns="http://www.w3.org/2000/svg"
   xmlns:svg="http://www.w3.org/2000/svg">
  <defs
     id="defs1" />
  <g
     id="layer1"
     transform="translate(-82.020832,-85.460417)">
    <path
       fill="#000000"
       opacity="1"
       d="m 107.34037,171.09059 c -5.52167,-3.96782 -10.123001,-8.76672 -13.956851,-14.20088 -3.532373,-5.00683 -5.985623,-10.61715 -7.632766,-16.55556 -1.398218,-5.04097 -2.179531,-10.17329 -2.695231,-15.37353 -0.454458,-4.58268 -1.005147,-9.14963 -1.034622,-13.76463 -0.0067,-1.04174 0.486229,-2.05602 0.0816,-3.12595 -0.134927,-0.35678 0.178754,-0.59849 0.628989,-0.63391 3.749524,-0.29496 6.729113,-2.19461 9.306034,-4.73489 1.987431,-1.95917 3.362409,-4.386888 4.362857,-6.98724 0.352909,-0.917281 0.883902,-1.1916 1.78353,-1.126821 6.62317,0.476907 12.26552,-2.179346 17.60449,-5.657765 1.1193,-0.729237 1.9773,-1.871104 2.91438,-2.86192 0.31,-0.327775 0.55222,-0.668006 1.05556,-0.597782 0.62458,1.477596 0.0412,2.946951 0.0526,4.411968 0.0381,4.927908 -0.60522,9.802549 -1.03888,14.69498 -0.24391,2.75175 -0.24983,5.52938 -0.59337,8.26644 -0.55699,4.43756 0.49313,8.71022 1.0473,13.03892 0.21126,1.65021 0.38855,3.30488 0.56931,4.95884 0.17245,1.57792 0.3833,3.15425 1.47213,4.40819 1.4204,1.63578 1.48218,3.4604 1.17391,5.51307 -0.97328,6.48084 -0.94508,12.95846 0.76123,19.33426 0.43139,1.61192 -0.007,3.00577 -0.43341,4.48335 -1.11836,3.87502 -2.04647,7.7981 -2.69751,11.78018 -0.18167,1.11121 -0.65566,1.37093 -1.72512,1.01856 -4.06986,-1.34095 -7.50638,-3.76849 -11.00613,-6.28788 z"
       id="path1" />
    <path
       fill="#000000"
       opacity="1"
       d="m 121.99481,173.49837 c 0.25355,-2.92515 0.88868,-5.60851 2.51022,-7.98782 1.75215,-2.57096 1.96896,-5.25531 1.02993,-8.25961 -1.01788,-3.25656 -1.17395,-6.71478 -1.67313,-10.0897 -0.3181,-2.15068 0.585,-4.0479 1.39289,-5.95134 0.68564,-1.6154 1.3726,-3.2303 2.07099,-4.8402 0.30832,-0.71071 0.5453,-1.47809 1.30158,-1.95034 0.79912,1.10029 0.66192,2.49691 1.36908,3.60744 0.48142,-0.003 0.77621,-0.41273 0.98313,-0.73318 1.89992,-2.9423 4.96168,-4.03394 8.01055,-5.22341 5.1111,-1.99403 10.45507,-3.31801 15.51259,-5.46437 0.76252,-0.3236 1.61365,-1.25331 2.40719,-0.56404 0.80344,0.69785 0.11922,1.75025 -0.0987,2.59257 -0.81313,3.14263 -1.73913,6.25255 -3.43902,9.06387 -1.07799,1.7828 -1.22231,3.82868 -1.52633,5.80819 -0.13769,0.89648 -0.50853,1.27908 -1.31493,1.54297 -3.8753,1.26817 -7.60956,2.90309 -11.36272,4.48396 -0.85417,0.35979 -1.4404,1.02819 -1.96757,1.84973 -2.8135,4.38455 -4.90124,9.11859 -6.90839,13.89822 -0.48134,1.14622 -1.1031,2.15415 -2.24096,2.83482 -1.72312,1.0308 -2.53621,2.86317 -3.63871,4.43736 -0.61061,0.87185 -0.9504,1.99775 -2.11123,2.41939 -0.47874,-0.39407 -0.23429,-0.913 -0.30643,-1.47451 z"
       id="path2"/>
    <path
       fill="#000000"
       opacity="1"
       d="m 134.3287,111.34073 c -0.3393,0.75933 -0.94819,0.98721 -1.5797,1.21945 -1.35937,0.49992 -2.69864,1.05449 -4.05786,1.55483 -0.89803,0.33058 -1.34099,0.87536 -1.24071,1.88706 0.0822,0.82893 -0.0922,1.68932 0.0345,2.50676 0.48059,3.10241 -0.53442,5.66064 -2.6792,7.84906 -0.84438,0.86155 -1.25023,2.12307 -2.63049,2.8362 -0.15746,-1.44262 -0.37764,-2.75159 -0.42962,-4.0672 -0.16484,-4.17281 -0.75581,-8.28511 -1.68301,-12.34839 -0.18674,-0.81839 -0.15721,-1.51207 0.16902,-2.28911 1.95301,-4.65189 2.90979,-9.52509 3.41201,-14.539085 0.20122,-2.008955 -0.0495,-4.03614 0.42204,-6.028743 0.26026,-1.099899 0.63152,-1.18349 1.51162,-0.573592 3.84749,2.666269 8.17186,4.192376 12.70618,5.186463 0.89787,0.196843 1.84581,-0.10869 3.00002,0.304348 -3.17279,5.144039 -5.2902,10.675439 -6.95477,16.501949 z"
       id="path3"/>
    <path
       fill="#000000"
       opacity="1"
       d="m 146.52601,123.6626 c -2.00784,0.60402 -3.79079,1.44379 -5.4657,2.51891 -0.63713,0.40898 -1.36047,0.59643 -2.08846,0.77197 -1.00505,0.24236 -1.61533,0.0741 -1.16175,-1.38208 -1.78605,1.0277 -3.35361,2.03879 -5.01619,2.85676 -1.79483,0.88304 -3.46317,1.98329 -5.41162,2.6334 -1.21713,0.4061 -2.14287,1.68394 -3.20133,2.56826 -0.26177,0.21871 -0.44766,0.55427 -1.00924,0.57416 -0.25878,-1.59388 -0.20315,-3.08961 1.00076,-4.35484 1.63612,-1.71945 3.31804,-3.3892 5.27888,-4.74846 2.30915,-1.60071 3.42667,-4.10795 4.64159,-6.45994 1.02946,-1.99297 2.40436,-3.19165 4.53797,-3.82734 2.98033,-0.88795 5.93601,-1.89535 8.82203,-3.0518 2.42094,-0.9701 4.4612,-2.62169 6.32565,-4.4298 0.64737,-0.62781 1.19917,-1.20828 2.1139,-0.73976 1.00247,0.51346 2.31775,0.68229 2.28538,2.33402 -0.0674,3.43796 -0.0233,6.87811 -0.0243,10.31736 -2.6e-4,1.21241 -0.3556,1.97834 -1.76886,2.24299 -3.27122,0.61255 -6.5051,1.42448 -9.85873,2.17619 z"
       id="path4"/>
    <path
       fill="#000000"
       opacity="1"
       d="m 137.8254,106.76635 c 0.37359,-1.65415 1.41695,-2.66551 2.61121,-3.62725 1.26559,-1.01919 2.4272,-2.1697 3.37779,-3.510073 0.7732,-1.090258 1.39628,-1.088262 2.05676,0.0011 0.98357,1.622293 2.17912,3.062493 3.62974,4.288253 0.58753,0.49646 0.60657,1.05691 0.10618,1.60105 -1.2509,1.36027 -2.55613,2.67832 -4.08164,3.72399 -0.89152,0.6111 -2.03394,0.45492 -3.06265,0.58791 -0.91656,0.11848 -1.67376,0.4071 -2.34681,1.03065 -1.4481,1.34161 -2.92559,2.65145 -4.38222,3.98395 -0.29658,0.27131 -0.58167,0.62446 -1.00849,0.34612 -0.44925,-0.29298 -0.15852,-0.70294 -0.0571,-1.07244 0.57576,-2.0983 1.87897,-3.87424 2.61184,-5.90285 0.1639,-0.45365 0.34315,-0.90175 0.54542,-1.45044 z"
       id="path5"
       style="stroke-width:0.264583" />
    <path
       fill="#000000"
       opacity="1"
       stroke="none"
       d="m 145.37406,155.46971 c -0.3863,1.11826 -1.10232,1.73418 -2.08868,2.17164 -1.96494,0.87145 -3.89089,1.8309 -5.83103,2.75803 -0.40541,0.19374 -0.85615,0.41698 -1.22448,0.0675 -0.34844,-0.33055 -0.2693,-0.83582 -0.0975,-1.24312 1.21073,-2.87085 2.60685,-5.65091 4.15566,-8.35436 0.21335,-0.37241 0.59941,-0.52255 0.95279,-0.67582 1.89116,-0.82021 3.78962,-1.62422 5.69842,-2.40229 0.2525,-0.10293 0.57177,-0.28706 0.98086,0.0552 -0.1565,2.68615 -1.50907,5.05221 -2.54602,7.62317 z"
       id="path6"/>
    <path
       fill="#000000"
       opacity="1"
       d="m 132.43823,168.08005 c -0.44102,0.20236 -0.75032,0.4897 -1.17757,0.38017 -1.07334,-2.0888 1.72953,-6.0209 4.18259,-6.48049 0.90096,3.16939 0.3496,4.31789 -3.00502,6.10032 z"
       id="path7"/>
  </g>
</svg>
