<?xml version="1.0" encoding="UTF-8" standalone="no"?>
<svg
   version="1.1"
   id="Layer_1"
   x="0px"
   y="0px"
   width="287.83987"
   viewBox="0 0 287.83987 347.96188"
   enable-background="new 0 0 400 400"
   xml:space="preserve"
   height="347.96188"
   xmlns="http://www.w3.org/2000/svg"
   xmlns:svg="http://www.w3.org/2000/svg"><defs
   id="defs7" />
<path
   fill="#000000"
   opacity="1"
   stroke="none"
   d="M 95.695898,323.64159 C 74.826588,308.6451 57.435728,290.50753 42.945585,269.96899 29.594885,251.04555 20.322759,229.84118 14.097334,207.39678 8.8127338,188.34432 5.8597388,168.94654 3.9106348,149.29209 2.1929988,131.97173 0.11165377,114.71084 2.5276748e-4,97.26829 -0.02489723,93.33102 1.8379688,89.49751 0.30865577,85.45369 -0.20130423,84.10524 0.98426177,83.19168 2.6859378,83.05782 16.857366,81.94299 28.118803,74.76321 37.85835,65.162155 45.369898,57.757415 50.566668,48.581802 54.347888,38.7537 c 1.33383,-3.466889 3.34073,-4.503685 6.7409,-4.25885 25.03245,1.802482 46.357862,-8.236901 66.536672,-21.383679 4.23043,-2.756172 7.47327,-7.0718916 11.01496,-10.8167066 1.17165,-1.238833 2.08716,-2.52474595 3.98953,-2.25933495 2.3606,5.58461795 0.15584,11.13808355 0.19869,16.67515555 0.14415,18.625164 -2.28746,37.049007 -3.92647,55.540075 -0.92188,10.40033 -0.94423,20.89847 -2.24268,31.24324 -2.10516,16.77189 1.86382,32.92051 3.95831,49.28096 0.79847,6.237 1.46853,12.4909 2.15172,18.74206 0.6518,5.96382 1.44869,11.92159 5.56397,16.66088 5.36842,6.18249 5.60193,13.0787 4.43683,20.83683 -3.67856,24.49451 -3.57198,48.97684 2.87709,73.07435 1.63044,6.09231 -0.0264,11.36038 -1.63811,16.94494 -4.22687,14.64575 -7.73466,29.47315 -10.1953,44.52353 -0.68663,4.19983 -2.4781,5.18146 -6.52014,3.84967 -15.38213,-5.06814 -28.37056,-14.2431 -41.597962,-23.76523 z"
   id="path1" />
<path
   fill="#000000"
   opacity="1"
   stroke="none"
   d="m 151.08276,332.74187 c 0.95828,-11.05569 3.35878,-21.19751 9.48744,-30.19018 6.6223,-9.71701 7.44174,-19.86258 3.89265,-31.21744 -3.84711,-12.30826 -4.43699,-25.37869 -6.32365,-38.13428 -1.20227,-8.12855 2.21101,-15.29915 5.26446,-22.49325 2.5914,-6.10546 5.18778,-12.20902 7.82738,-18.29369 1.16528,-2.68614 2.06096,-5.58647 4.91936,-7.37137 3.02029,4.1586 2.50172,9.43714 5.17445,13.63443 1.81954,-0.011 2.93372,-1.5599 3.71579,-2.77107 7.18079,-11.1205 18.75279,-15.24637 30.27608,-19.74203 19.31756,-7.53649 39.51523,-12.54049 58.63028,-20.65271 2.88196,-1.22307 6.09884,-4.73694 9.09805,-2.13184 3.03662,2.63756 0.45056,6.61514 -0.37317,9.79869 -3.07324,11.87766 -6.57309,23.63171 -12.99789,34.25716 -4.07428,6.73813 -4.61972,14.47062 -5.7688,21.95222 -0.52039,3.38826 -1.922,4.83432 -4.96979,5.83171 -14.64682,4.79306 -28.76056,10.97229 -42.94571,16.94724 -3.22839,1.35983 -5.44403,3.88608 -7.43649,6.99109 -10.63371,16.57153 -18.52438,34.46396 -26.11047,52.52871 -1.81923,4.33216 -4.16918,8.14167 -8.46975,10.7143 -6.51258,3.89593 -9.58569,10.82141 -13.7526,16.77112 -2.30784,3.29519 -3.59209,7.55056 -7.97948,9.14413 -1.80941,-1.48938 -0.8855,-3.45071 -1.15814,-5.57294 z"
   id="path2" />
<path
   fill="#000000"
   opacity="1"
   stroke="none"
   d="m 197.69901,97.81534 c -1.28236,2.86992 -3.58369,3.73121 -5.9705,4.60898 -5.13779,1.88945 -10.19957,3.98546 -15.33679,5.87651 -3.39414,1.24942 -5.06833,3.30846 -4.68931,7.13218 0.31055,3.13299 -0.34829,6.38485 0.13028,9.47438 1.8164,11.72564 -2.01983,21.39454 -10.12609,29.66572 -3.19138,3.25627 -4.72529,8.02423 -9.94204,10.71953 -0.59509,-5.45242 -1.42729,-10.39972 -1.62373,-15.37212 -0.62303,-15.77124 -2.85663,-31.31379 -6.36098,-46.67109 -0.70579,-3.0931 -0.5942,-5.71488 0.63878,-8.65174 7.38149,-17.58196 10.99765,-36.000347 12.8958,-54.95087 0.76051,-7.5929 -0.18694,-15.2547 1.59511,-22.785801 0.98367,-4.157097 2.38685,-4.47303 5.71322,-2.167904 14.54169,10.077236 30.88578,15.845199 48.02337,19.602379 3.39349,0.743972 6.97628,-0.410798 11.33865,1.150291 C 211.99311,54.887824 203.9903,75.79392 197.69901,97.81534 Z"
   id="path3" />
<path
   fill="#000000"
   opacity="1"
   stroke="none"
   d="m 243.79911,144.38619 c -7.58871,2.28291 -14.32742,5.45685 -20.65778,9.52031 -2.40805,1.54575 -5.14193,2.2542 -7.8934,2.91766 -3.79861,0.91602 -6.10516,0.2802 -4.39087,-5.22358 -6.75042,3.8842 -12.67505,7.70566 -18.9588,10.79719 -6.78361,3.33748 -13.08917,7.4959 -20.45338,9.95299 -4.60016,1.53487 -8.09905,6.36453 -12.09952,9.70683 -0.98935,0.82662 -1.69193,2.09488 -3.81444,2.17005 -0.97809,-6.02413 -0.76782,-11.67725 3.78241,-16.45925 6.18375,-6.4987 12.5406,-12.80955 19.95166,-17.94693 8.72751,-6.04992 12.95119,-15.52612 17.543,-24.41552 3.89087,-7.53246 9.08737,-12.06292 17.1514,-14.46552 11.26425,-3.35605 22.4353,-7.16353 33.34311,-11.53439 9.14999,-3.66651 16.86123,-9.90875 23.90796,-16.74254 2.44674,-2.37282 4.53228,-4.56671 7.98956,-2.79595 3.78885,1.94063 8.75998,2.57876 8.63763,8.82151 -0.2547,12.99386 -0.0881,25.99602 -0.0917,38.99476 -10e-4,4.58231 -1.34403,7.47718 -6.68549,8.47742 -12.36365,2.31517 -24.58618,5.38388 -37.26132,8.22496 z"
   id="path4" />
<path
   fill="#000000"
   opacity="1"
   stroke="none"
   d="m 210.91489,80.52635 c 1.41199,-6.25189 5.35541,-10.07437 9.86914,-13.709288 4.78336,-3.852036 9.17368,-8.200424 12.76645,-13.266411 2.92234,-4.120659 5.27729,-4.113113 7.77359,0.0043 3.71744,6.131493 8.23603,11.574784 13.71872,16.207596 2.22058,1.876376 2.29254,3.994596 0.40131,6.051196 -4.72784,5.14117 -9.66098,10.12278 -15.4267,14.07494 -3.3695,2.30965 -7.68731,1.71938 -11.57535,2.22199 -3.46417,0.4478 -6.32602,1.53865 -8.86984,3.8954 -5.47314,5.070647 -11.05734,10.021227 -16.56271,15.057437 -1.12094,1.02542 -2.19846,2.36017 -3.81163,1.30815 -1.69795,-1.10732 -0.59912,-2.65678 -0.21593,-4.05328 2.17612,-7.93061 7.10162,-14.642827 9.87155,-22.309997 0.61945,-1.71457 1.29691,-3.40818 2.0614,-5.48199 z"
   id="path5" />
<path
   fill="#000000"
   opacity="1"
   stroke="none"
   d="m 239.44526,264.60204 c -1.46002,4.2265 -4.16623,6.55439 -7.89423,8.2078 -7.42651,3.29364 -14.70572,6.91992 -22.03851,10.42404 -1.53226,0.73224 -3.23587,1.57599 -4.62796,0.25531 -1.31693,-1.24933 -1.01782,-3.159 -0.36859,-4.6984 4.57599,-10.85046 9.85266,-21.35778 15.70642,-31.57556 0.80637,-1.40753 2.2655,-1.97497 3.6011,-2.55426 7.14771,-3.1 14.323,-6.13879 21.53736,-9.07953 0.95431,-0.38904 2.16101,-1.08493 3.70718,0.20862 -0.59152,10.15238 -5.70358,19.09497 -9.62277,28.81198 z"
   id="path6" />
<path
   fill="#000000"
   opacity="1"
   stroke="none"
   d="m 190.55396,312.26317 c -1.66685,0.76484 -2.83586,1.85084 -4.45067,1.43689 -4.05674,-7.89468 6.53679,-22.75616 15.80822,-24.49322 3.40518,11.97882 1.32132,16.31961 -11.35755,23.05633 z"
   id="path7" />
</svg>
