<svg xmlns="http://www.w3.org/2000/svg" width="475.68" height="452.52" viewBox="0 0 475.68 452.52"><defs><style>.cls-1{fill:#231f20;stroke:#231f20;stroke-miterlimit:10;}</style></defs><g id="Layer_2" data-name="Layer 2"><g id="Layer_1-2" data-name="Layer 1"><polygon class="cls-1" points="251.34 220.4 220.42 229.93 245.97 262.67 276.9 253.14 251.34 220.4"/><path class="cls-1" d="M306.19,203.5l25.56,32.75.48-.15h0l0,0,3.9-1.2c7.47-3,12.73-9.75,12.73-17.51,0-10.54-9.7-19.23-21.49-19.23A23.81,23.81,0,0,0,321,199a.29.29,0,0,0,0-.09Z"/><polygon class="cls-1" points="294.23 207.19 263.3 216.72 288.86 249.46 319.78 239.93 294.23 207.19"/><polygon class="cls-1" points="203.08 275.88 234.01 266.35 208.45 233.61 177.53 243.14 203.08 275.88"/><path class="cls-1" d="M165.56,246.82,140,254.7a75.66,75.66,0,0,1,7.19,9.5A70.2,70.2,0,0,1,157.28,290l33.84-10.43Z"/><path class="cls-1" d="M195.81.51c-46.16.27-91.59,9.91-126.18,27.74,35.44-4.56,67.76-4.78,96.44-1.31a229.11,229.11,0,0,0-40.72,20C171.24,35,221.37,33,263.93,42.48c-39.54,4.26-73.16,12.72-100.54,24.37C233.76,56.41,295.23,84.25,331,140.31a90.82,90.82,0,0,1,26.29-23.14,89.71,89.71,0,0,1,43.06-12.26c2.5-.06,5,0,7.48.14-24.21-41.38-57.39-67.31-93.86-80.94A251.07,251.07,0,0,0,249.71,4.58h0A328.57,328.57,0,0,0,195.81.51Zm207.48,123c-.8,0-1.6,0-2.4,0a71.71,71.71,0,0,0-34.23,9.83,73.09,73.09,0,0,0-35.64,54,27.86,27.86,0,0,1,8.45-1.31,28.27,28.27,0,0,1,6.33,55.82,71.57,71.57,0,0,0,93.13,18.33c34.68-20.23,46.55-64.94,26.49-100.06a72,72,0,0,0-62.13-36.63ZM73.38,238.35c-.8,0-1.6,0-2.4,0a71.69,71.69,0,0,0-34.23,9.82C2.07,268.44-9.81,313.14,10.26,348.26a72.11,72.11,0,0,0,48,35.12,253.07,253.07,0,0,0,56.63,42.1,156.73,156.73,0,0,0,66.82,26.23c-30.59-20.56-50.59-46.06-52.87-69.19,53.75,60.73,145.74,82,216.57,61.55,32-11.66,58-29.3,73-51.09-61.8,27.52-125.79,31.27-181.82,16.44a221.75,221.75,0,0,0,51.6-22.86c-58.27,9.77-109.74-12.11-144.66-59.05a73.67,73.67,0,0,0-8-52.52,72,72,0,0,0-62.13-36.64Z"/></g></g></svg>