<svg xmlns="http://www.w3.org/2000/svg" width="277" height="277" viewBox="0 0 277 277">
  <path fill="white" d="M118,152c1,4.85,1.66,10,3.26,14.89,3.7,11.22,7.85,22.29,11.83,33.41,1.46,4.07,2.47,8.41,4.61,12.09,1.26,2.16,4.59,4.78,6.56,4.47,3.33-.52,3.45-4.09,2.83-7.36-1.73-9.16-3.36-18.35-4.76-27.57-.8-5.21-2.6-10.93-1.3-15.69,4.09-14.9,9.26-29.51,14.4-44.1,1.44-4.08,5.13-4.75,9.06-2.33,14.33,8.81,28.6,17.72,42.88,26.6,4.53,2.82,6.5,6.62,5.75,12.19-1.53,11.38-2.58,22.83-3.82,34.24-.6,5.51,2.42,8.59,7.87,7.93,3.8-.46,7.59-1.06,11.38-1.59,6.79-.94,9.29-3.7,9.36-10.49.12-10.66-.69-21.42.53-32,1.43-12.33-3.15-19.65-13.67-25.84-17.49-10.3-34.15-22-51.14-33.16-6-4-6.68-6.45-3.64-12.94,1.27-2.71,2.26-5.62,3.89-8.09,6.18-9.41,6-19.36,3.23-29.71-1.18-4.37-4.47-6.73-8.85-5.8-2,.42-3.86,1-5.77,1.63-4.9,1.51-7.05,5.08-5.4,9.89,1.74,5.08-.12,8.74-3.74,11.94-1.75,1.55-3.79,2.76-5.45,4.38-5.14,5-10.51,5-16.9,2.14-11.51-5.23-23.35-9.73-35-14.71-4.87-2.08-8.66-1.16-11.85,3q-22.51,29.34-45,58.65c-3.14,4.11-1.71,7.49,3.25,8.81,6.67,1.76,11.74,0,16.35-5.33,11.8-13.57,24-26.83,36-40.19,4.84-5.36,7.44-5.92,14.09-3.21,6,2.46,12,4.87,18,7.45,5.77,2.5,7.13,5.48,5.47,11.49-4,14.44-8.06,28.86-12,43.31C119.38,144.13,118.85,147.93,118,152ZM58.36,165c-7.12-.34-9.31,2.41-7.42,9.39,2.22,8.18,4.05,16.52,6.92,24.47A21.54,21.54,0,0,0,65.24,209c7.4,5,15.5,9.06,23.38,13.38,3.1,1.7,6.26,1.64,8.44-1.48,2.29-3.29,0-5.76-2.34-7.68-3.84-3.19-7.91-6.1-12-9-5.06-3.68-8.55-8.2-9.34-14.68-.56-4.61-1.7-9.16-2.59-13.73C69.31,168,66.31,165.38,58.36,165Z"/>
</svg>