<?xml version="1.0" encoding="UTF-8" standalone="no"?>
<!-- Created with Inkscape (http://www.inkscape.org/) -->

<svg
   version="1.1"
   id="svg1"
   width="137.33333"
   height="170.66667"
   viewBox="0 0 137.33333 170.66667"
   xmlns="http://www.w3.org/2000/svg"
   xmlns:svg="http://www.w3.org/2000/svg">
  <defs
     id="defs1" />
  <path
     style="fill:#ffffff;fill-opacity:1"
     d="M 39.178007,168.86014 C 19.004876,163.74016 4.7926463,146.87975 1.2154161,123.82394 -1.5909482,105.73649 2.2732128,94.096081 18.095097,72.975554 33.374589,52.579064 36.599677,44.616888 36.582531,27.333334 36.571767,16.48341 36.028429,12.820381 33.665368,7.6666669 32.068203,4.1833335 31.225407,1.3333334 31.792487,1.3333334 c 1.623497,0 16.191975,9.0146856 23.618148,14.6144416 7.163736,5.401864 23.632392,21.51377 26.749635,26.170175 1.718158,2.56651 0.510635,5.125127 -15.416824,32.666667 l -17.280994,29.882053 13.935439,0.37844 13.935439,0.37844 v 20.62156 20.62156 h 8.734522 8.734521 l -3.473671,4.55422 c -4.30152,5.63958 -15.430977,13.37688 -23.083291,16.04772 -8.319638,2.90374 -21.132952,3.60531 -29.067404,1.59153 z m -8.957858,-61.06696 c 5.92948,-5.57045 10.1846,-16.500438 10.841513,-27.848223 0.331917,-5.733664 0.168,-12.716869 -0.364259,-15.518233 l -0.967744,-5.093389 -2.559029,6.82401 c -1.407466,3.753205 -5.638714,10.34334 -9.402775,14.644744 -3.76406,4.301403 -7.938493,10.230599 -9.276518,13.17599 -2.462829,5.421422 -3.325896,15.404481 -1.491338,17.250261 1.759709,1.77047 9.942211,-0.35569 13.22015,-3.43516 z m 57.779848,7.54016 V 94.666669 h -10 c -5.5,0 -10,-0.24685 -10,-0.548555 0,-0.489619 33.166853,-58.337374 33.880843,-59.093062 0.35549,-0.376244 34.11915,57.947748 34.11915,58.938061 0,0.386956 -4.49999,0.703556 -9.99999,0.703556 H 116 V 115.33334 136 H 102 87.999997 Z"
     id="path1" />
</svg>
