<svg xmlns="http://www.w3.org/2000/svg" viewBox="0 0 19.6 24.61"><title>Asset 3</title><g id="Layer_2" data-name="Layer 2"><g id="Layer_1-2" data-name="Layer 1"><path d="M9.39,10.64A4.41,4.41,0,0,1,9.48,15,8.14,8.14,0,0,1,8.3,16.76,4.85,4.85,0,0,0,7,20,4.64,4.64,0,0,0,8.7,23.82a4.21,4.21,0,0,0,4.83.06,5,5,0,0,0,2-3.4,7.33,7.33,0,0,0-1.37-5.73,12.77,12.77,0,0,0-4-3.72C9.93,10.89,9.65,10.77,9.39,10.64Zm.76,4.85a4.11,4.11,0,0,1-.78,4,1.29,1.29,0,0,1-.57.29c-.36.1-.58-.1-.59-.48a1.33,1.33,0,0,1,0-.28,3.4,3.4,0,0,1,.93-1.74A3.25,3.25,0,0,0,10.15,15.49Zm9.34-4.08a4.9,4.9,0,0,1-.21,1.09,8.08,8.08,0,0,0-.87,1.92c-.23,1.38.34,2,.48,2.75a.12.12,0,0,1,0,.11l-.06.13a7.71,7.71,0,0,1-1.19,1.71,5.28,5.28,0,0,1-.65.65c-.12,0-.42.15-.79.24a7.93,7.93,0,0,0-1.52-5.73,13.52,13.52,0,0,0-4.19-3.88l-.59-.29L9.64,10,7.91,9.15l1,1.65A3.78,3.78,0,0,1,9,14.65a2.63,2.63,0,0,1-.21.41l-.3-.14-.16,0a1.4,1.4,0,0,0-.76,0c-.64.19-1.69.61-1.89.64a4.35,4.35,0,0,1-.91,0A11.44,11.44,0,0,1,3,15.24a4.09,4.09,0,0,1-1.15-.6,4.58,4.58,0,0,1-.76-.7,8.16,8.16,0,0,1-.51-1,4,4,0,0,1-.11-.52c0-.12,0-.24,0-.34S.5,12,.6,12l.57.36A6.55,6.55,0,0,0,2.36,13a5.77,5.77,0,0,0,1.71.42,5,5,0,0,0,1.16-.24.05.05,0,0,0,0-.1c-2-.44-3.67-1.25-4.38-2.41a4.49,4.49,0,0,1-.82-3,2.79,2.79,0,0,1,.24-.9c.1-.21.2-.44.21-.47h0s.36-.59.53-.84a.06.06,0,0,1,.1,0c.1,1.16.13,1.66.19,2a4,4,0,0,0,.76,1.65,6.06,6.06,0,0,0,1.63,1.26,4.48,4.48,0,0,0,1,.31h1a4,4,0,0,0,1-.27l0,0,0,0c-.15-.1-1-.35-1.24-.47a4.81,4.81,0,0,1-1.17-.7C1.75,7.27,2.23,1.77,4.71,0a.07.07,0,0,1,.1.06,10.06,10.06,0,0,0,0,4.87A4.46,4.46,0,0,0,6.68,7.48,3.12,3.12,0,0,0,8,8h.13s.07,0,.05-.08C6.59,5.61,6.8,4.21,6.86,3.64a8,8,0,0,1,.45-2C7.76.44,8.2.17,8.39.07c0,0,.08,0,.08,0C9.09,6.81,11.3,6.75,13,8.77l0,0,.86.14h0c.17-.1,1.57-1,1.82-1.21a2.72,2.72,0,0,0,1-1.49,3.38,3.38,0,0,0-.27-1.06,11.14,11.14,0,0,0-.54-1c-.37-.56-1.34-2.06-1.12-2.28s2.25.46,2.37.5a1.13,1.13,0,0,1,.23.15,9.87,9.87,0,0,1,1.79,1.91,3,3,0,0,1,.25.57,6,6,0,0,1,.17.94C19.59,8.57,19.64,10.17,19.49,11.41Z"/></g></g></svg>