<?xml version="1.0" encoding="UTF-8" standalone="no"?>
<!-- Created with Inkscape (http://www.inkscape.org/) -->

<svg
   version="1.1"
   id="svg1"
   width="150.33299"
   height="186.82161"
   viewBox="0 0 150.33299 186.8216"
   sodipodi:docname="ruinmaw_become_sated_red.svg"
   inkscape:version="1.4.2 (f4327f4, 2025-05-13)"
   xmlns:inkscape="http://www.inkscape.org/namespaces/inkscape"
   xmlns:sodipodi="http://sodipodi.sourceforge.net/DTD/sodipodi-0.dtd"
   xmlns="http://www.w3.org/2000/svg"
   xmlns:svg="http://www.w3.org/2000/svg">
  <sodipodi:namedview
     id="namedview1"
     pagecolor="#ffffff"
     bordercolor="#000000"
     borderopacity="0.25"
     inkscape:showpageshadow="2"
     inkscape:pageopacity="0.0"
     inkscape:pagecheckerboard="0"
     inkscape:deskcolor="#d1d1d1"
     inkscape:zoom="5.0097655"
     inkscape:cx="68.965304"
     inkscape:cy="69.364524"
     inkscape:window-width="1920"
     inkscape:window-height="1057"
     inkscape:window-x="2552"
     inkscape:window-y="122"
     inkscape:window-maximized="1"
     inkscape:current-layer="svg1" />
  <defs
     id="defs1" />
  <!-- Body + notch -->
  <path
     style="fill:#ffffff;fill-opacity:1"
     d="M 46.363972,173.05196 C 26.190841,167.93198 11.978611,151.07157 8.4013812,128.01576 5.5950169,109.92831 9.4591779,98.287898 25.281062,77.167367 40.560554,56.770877 43.785642,48.808701 43.768496,31.525147 43.757732,20.675223 43.214394,17.012194 40.851333,11.85848 39.254168,8.3751466 38.411372,5.5251464 38.978452,5.5251464 c 1.623497,0 16.191975,9.0146856 23.618148,14.6144416 7.163736,5.401864 23.632392,21.51377 26.749635,26.170175 1.718158,2.56651 0.510635,5.125127 -15.416824,32.666667 l -17.280994,29.88206 13.935439,0.37844 13.935439,0.37844 v 20.62156 20.62156 h 8.734522 8.734523 l -3.473673,4.55422 c -4.30152,5.63958 -15.430977,13.37688 -23.083291,16.04772 -8.319638,2.90374 -21.132952,3.60531 -29.067404,1.59153 z M 37.406114,111.985 c 5.92948,-5.57045 10.1846,-16.500445 10.841513,-27.84823 0.331917,-5.733664 0.168,-12.716869 -0.364259,-15.518233 l -0.967744,-5.093389 -2.559029,6.82401 c -1.407466,3.753205 -5.638714,10.34334 -9.402775,14.644744 -3.76406,4.301403 -7.938493,10.230599 -9.276518,13.175986 -2.462829,5.421432 -3.325896,15.404492 -1.491338,17.250272 1.759709,1.77047 9.942211,-0.35569 13.22015,-3.43516 z"
     id="path_body" />
  <!-- Up arrow -->
  <path
     style="fill:#b20000;fill-opacity:1"
     d="M 95.185965,119.52516 V 98.858478 h -10 c -5.5,0 -10,-0.24685 -10,-0.54855 0,-0.48962 33.166855,-58.337375 33.880845,-59.093063 0.35549,-0.376244 34.11915,57.947753 34.11915,58.938063 0,0.38695 -4.49999,0.70355 -9.99999,0.70355 h -10 v 20.666682 20.66666 h -14 -14.000005 z"
     id="path_arrow" />
</svg>
