<?xml version="1.0" encoding="UTF-8" standalone="no"?>
<svg
   viewBox="0 0 29.6 37.166118"
   version="1.1"
   id="svg1"
   sodipodi:docname="ruinmaw_icon.svg"
   width="29.6"
   height="37.166122"
   inkscape:version="1.4.2 (f4327f4, 2025-05-13)"
   xmlns:inkscape="http://www.inkscape.org/namespaces/inkscape"
   xmlns:sodipodi="http://sodipodi.sourceforge.net/DTD/sodipodi-0.dtd"
   xmlns="http://www.w3.org/2000/svg"
   xmlns:svg="http://www.w3.org/2000/svg"
   xmlns:rdf="http://www.w3.org/1999/02/22-rdf-syntax-ns#"
   xmlns:cc="http://creativecommons.org/ns#"
   xmlns:dc="http://purl.org/dc/elements/1.1/">
  <defs
     id="defs1" />
  <sodipodi:namedview
     id="namedview1"
     pagecolor="#ffffff"
     bordercolor="#000000"
     borderopacity="0.25"
     inkscape:showpageshadow="2"
     inkscape:pageopacity="0.0"
     inkscape:pagecheckerboard="0"
     inkscape:deskcolor="#d1d1d1"
     inkscape:zoom="8.6854935"
     inkscape:cx="-0.28783626"
     inkscape:cy="28.035252"
     inkscape:window-width="1920"
     inkscape:window-height="1057"
     inkscape:window-x="2552"
     inkscape:window-y="122"
     inkscape:window-maximized="1"
     inkscape:current-layer="svg1" />
  <title
     id="title1">Asset 3</title>
  <g
     id="Layer_2"
     data-name="Layer 2"
     transform="translate(4.9971033,6.2804876)">
    <g
       id="Layer_1-2"
       data-name="Layer 1">
      <path
         d="M 9.39,10.64 A 4.41,4.41 0 0 1 9.48,15 8.14,8.14 0 0 1 8.3,16.76 4.85,4.85 0 0 0 7,20 a 4.64,4.64 0 0 0 1.7,3.82 4.21,4.21 0 0 0 4.83,0.06 5,5 0 0 0 2,-3.4 7.33,7.33 0 0 0 -1.37,-5.73 12.77,12.77 0 0 0 -4,-3.72 C 9.93,10.89 9.65,10.77 9.39,10.64 Z m 0.76,4.85 a 4.11,4.11 0 0 1 -0.78,4 1.29,1.29 0 0 1 -0.57,0.29 C 8.44,19.88 8.22,19.68 8.21,19.3 a 1.33,1.33 0 0 1 0,-0.28 3.4,3.4 0 0 1 0.93,-1.74 3.25,3.25 0 0 0 1.01,-1.79 z m 9.34,-4.08 a 4.9,4.9 0 0 1 -0.21,1.09 8.08,8.08 0 0 0 -0.87,1.92 c -0.23,1.38 0.34,2 0.48,2.75 a 0.12,0.12 0 0 1 0,0.11 l -0.06,0.13 a 7.71,7.71 0 0 1 -1.19,1.71 5.28,5.28 0 0 1 -0.65,0.65 c -0.12,0 -0.42,0.15 -0.79,0.24 A 7.93,7.93 0 0 0 14.68,14.28 13.52,13.52 0 0 0 10.49,10.4 L 9.9,10.11 9.64,10 7.91,9.15 l 1,1.65 A 3.78,3.78 0 0 1 9,14.65 2.63,2.63 0 0 1 8.79,15.06 L 8.49,14.92 H 8.33 a 1.4,1.4 0 0 0 -0.76,0 c -0.64,0.19 -1.69,0.61 -1.89,0.64 a 4.35,4.35 0 0 1 -0.91,0 A 11.44,11.44 0 0 1 3,15.24 4.09,4.09 0 0 1 1.85,14.64 4.58,4.58 0 0 1 1.09,13.94 8.16,8.16 0 0 1 0.58,12.94 4,4 0 0 1 0.47,12.42 c 0,-0.12 0,-0.24 0,-0.34 C 0.47,11.98 0.5,12 0.6,12 l 0.57,0.36 a 6.55,6.55 0 0 0 1.19,0.64 5.77,5.77 0 0 0 1.71,0.42 5,5 0 0 0 1.16,-0.24 0.05,0.05 0 0 0 0,-0.1 c -2,-0.44 -3.67,-1.25 -4.38,-2.41 a 4.49,4.49 0 0 1 -0.82,-3 2.79,2.79 0 0 1 0.24,-0.9 C 0.37,6.56 0.47,6.33 0.48,6.3 v 0 c 0,0 0.36,-0.59 0.53,-0.84 a 0.06,0.06 0 0 1 0.1,0 c 0.1,1.16 0.13,1.66 0.19,2 a 4,4 0 0 0 0.76,1.65 6.06,6.06 0 0 0 1.63,1.26 4.48,4.48 0 0 0 1,0.31 h 1 a 4,4 0 0 0 1,-0.27 v 0 0 C 6.54,10.31 5.69,10.06 5.45,9.94 A 4.81,4.81 0 0 1 4.28,9.24 C 1.75,7.27 2.23,1.77 4.71,0 a 0.07,0.07 0 0 1 0.1,0.06 10.06,10.06 0 0 0 0,4.87 A 4.46,4.46 0 0 0 6.68,7.48 3.12,3.12 0 0 0 8,8 H 8.13 C 8.13,8 8.2,8 8.18,7.92 6.59,5.61 6.8,4.21 6.86,3.64 a 8,8 0 0 1 0.45,-2 C 7.76,0.44 8.2,0.17 8.39,0.07 c 0,0 0.08,0 0.08,0 0.62,6.74 2.83,6.68 4.53,8.7 v 0 l 0.86,0.14 v 0 c 0.17,-0.1 1.57,-1 1.82,-1.21 a 2.72,2.72 0 0 0 1,-1.49 3.38,3.38 0 0 0 -0.27,-1.06 11.14,11.14 0 0 0 -0.54,-1 C 15.5,3.59 14.53,2.09 14.75,1.87 14.97,1.65 17,2.33 17.12,2.37 a 1.13,1.13 0 0 1 0.23,0.15 9.87,9.87 0 0 1 1.79,1.91 3,3 0 0 1 0.25,0.57 6,6 0 0 1 0.17,0.94 c 0.03,2.63 0.08,4.23 -0.07,5.47 z"
         id="path1" />
    </g>
  </g>
  <metadata
     id="metadata1">
    <rdf:RDF>
      <cc:Work
         rdf:about="">
        <dc:title>Asset 3</dc:title>
      </cc:Work>
    </rdf:RDF>
  </metadata>
</svg>
