<?xml version="1.0" encoding="UTF-8" standalone="no"?>
<!-- Created with Inkscape (http://www.inkscape.org/) -->

<svg
   version="1.1"
   id="svg1"
   width="150.66701"
   height="241.0672"
   viewBox="0 0 150.66701 241.06729"
   xmlns="http://www.w3.org/2000/svg"
   xmlns:svg="http://www.w3.org/2000/svg">
  <defs
     id="defs1" />
  <path
     style="fill:#b40000;fill-opacity:1"
     d="M 61.268702,203.59477 C 41.095569,198.47479 26.883339,181.61438 23.306109,158.55857 20.499744,140.47112 24.363905,128.83071 40.185791,107.71018 55.329927,87.49438 58.594868,79.420731 58.643264,62.067963 58.673784,51.125105 58.157983,47.599153 55.766289,42.401296 54.163499,38.917962 53.1606,36.067962 53.537623,36.067962 c 1.616105,0 9.906798,4.834362 18.875572,11.00648 12.442168,8.562433 32.879355,29.877645 40.741325,42.491656 15.80284,25.354632 19.12226,50.971072 10.13169,78.187912 -8.59501,26.01938 -36.705718,42.26494 -62.017508,35.84076 z m -8.957858,-61.06696 c 5.92948,-5.57045 10.184601,-16.50044 10.841514,-27.84822 0.331917,-5.73367 0.168,-12.71687 -0.364259,-15.518237 l -0.967745,-5.093389 -2.525556,6.666666 c -1.389057,3.66667 -5.620645,10.26667 -9.403531,14.66667 -3.782886,4.4 -7.972382,10.4 -9.309991,13.33333 -2.461815,5.39868 -3.325575,15.38213 -1.490583,17.22834 1.759709,1.77047 9.942211,-0.35569 13.220151,-3.43516 z"
     id="path1" />
</svg>
