<?xml version="1.0" encoding="UTF-8" standalone="no"?>
<!-- Created with Inkscape (http://www.inkscape.org/) -->

<svg
   version="1.1"
   id="svg1"
   width="106.66667"
   height="170.66667"
   viewBox="0 0 106.66667 170.66667"
   xmlns="http://www.w3.org/2000/svg"
   xmlns:svg="http://www.w3.org/2000/svg">
  <defs
     id="defs1" />
  <path
     style="fill:#ffffff;fill-opacity:1"
     d="M 39.17801,168.86014 C 19.004877,163.74016 4.7926467,146.87975 1.2154163,123.82394 -1.5909483,105.73649 2.273213,94.096081 18.095099,72.975554 33.239235,52.759751 36.504176,44.686102 36.552572,27.333334 36.583092,16.390476 36.067291,12.864524 33.675597,7.6666669 32.072807,4.1833335 31.069908,1.3333334 31.446931,1.3333334 c 1.616105,0 9.906798,4.8343615 18.875572,11.0064796 12.442168,8.562433 32.879355,29.877645 40.741323,42.491656 15.802844,25.35463 19.122264,50.971071 10.131694,78.187911 -8.595008,26.01938 -36.70572,42.26494 -62.01751,35.84076 z m -8.957858,-61.06696 c 5.92948,-5.57045 10.184601,-16.500438 10.841514,-27.848223 0.331917,-5.733664 0.168,-12.716869 -0.364259,-15.518233 l -0.967745,-5.093389 -2.525556,6.666667 c -1.389057,3.666667 -5.620645,10.266667 -9.403531,14.666667 -3.782886,4.4 -7.972382,10.4 -9.309991,13.333334 -2.461815,5.398678 -3.325575,15.382127 -1.490583,17.228337 1.759709,1.77047 9.942211,-0.35569 13.220151,-3.43516 z"
     id="path1" />
</svg>
