<?xml version="1.0" encoding="UTF-8" standalone="no"?>
<!-- Created with Inkscape (http://www.inkscape.org/) -->

<svg
   version="1.1"
   id="svg1"
   width="588.49854"
   height="593.47278"
   viewBox="0 0 588.49854 593.47278"
   xmlns="http://www.w3.org/2000/svg"
   xmlns:svg="http://www.w3.org/2000/svg">
  <defs
     id="defs1" />
  <g
     id="layer2"
     transform="translate(30.913439,32.149195)">
    <path
       id="rect2"
       style="fill:#ffffff;fill-opacity:1;stroke-width:69.3141;stroke-dasharray:none;paint-order:fill markers stroke"
       transform="matrix(0.69171553,0.72217008,-0.69171553,0.72217008,-12,-12)"
       d="m 185.52289,-213.42379 417.26307,-7.22863 -6.36765,418.12406 -419.02294,7.26653 z" />
    <path
       id="path1"
       style="fill:#3a4d42;fill-opacity:1"
       d="M 259.49085,-0.22127399 C 173.4596,85.809973 86.03125,172.64844 0,258.67969 c -6.0903118,6.04098 -2.181535,7.96469 0,10.59961 59.5481,59.57429 119.09636,119.14843 178.64648,178.7207 4.60034,-0.0406 9.24834,0.2384 13.78907,-0.67773 15.20771,-2.86985 28.37363,-13.78731 34.83593,-27.73829 1.27917,-2.90383 2.94599,-5.66962 3.75987,-8.75585 0.64122,-2.26491 -0.019,-4.7594 -1.57237,-6.50391 -2.43529,-2.77892 -5.61477,-4.7503 -8.62264,-6.84242 -8.35038,-5.60692 -16.82672,-11.03313 -25.02057,-16.86953 -0.10879,-0.20903 -1.32839,-0.71257 -0.75025,-0.75527 12.2113,-1.59704 24.41158,-3.28267 36.58479,-5.15021 0.83695,-0.16613 1.78264,-0.22088 2.51199,-0.63929 0.50567,-0.65519 0.85652,-1.45226 0.61309,-2.2882 -0.83343,-2.63026 -2.21165,-5.04885 -3.41106,-7.52424 -5.16631,-10.02004 -10.64579,-19.91809 -17.20511,-29.10607 -10.93682,-15.41837 -23.90315,-29.37764 -38.30805,-41.60884 -5.96208,-5.07765 -12.2661,-9.73455 -18.71926,-14.16604 -1.03066,-0.67647 -2.01296,-1.49817 -3.07365,-2.08442 -12.66452,-0.43594 -25.31295,-0.65484 -37.96451,-1.36196 -0.49984,0.0144 -1.19316,0.0124 -0.52268,-0.64708 4.04478,-7.13643 8.58842,-14.09229 12.89281,-21.14589 1.42866,-2.39468 2.98563,-4.72244 4.28026,-7.1914 0.69614,-2.21746 0.3543,-4.58904 0.25781,-6.86914 -0.80318,-9.57636 -2.18396,-19.09175 -3.39792,-28.62239 -1.23392,-9.39171 -2.46572,-18.77238 -3.66778,-28.15704 -0.68069,-1.60097 -1.89338,-2.91304 -2.8675,-4.34196 -3.6096,-4.89476 -7.47817,-9.5925 -11.06094,-14.50752 -0.36106,-0.37652 -0.73703,-0.91997 0.17923,-0.83619 5.92684,-1.09292 11.92337,-1.79092 17.82579,-3.0134 1.91928,-0.42146 4.1479,-1.06168 5.02428,-3.01955 0.88664,-2.48742 2.43719,-4.66299 3.783,-6.91667 2.54189,-4.11895 5.32963,-8.08992 8.49469,-11.75663 5.17831,-6.07373 10.92258,-11.85119 17.01918,-17.09818 3.65834,-3.16826 7.58584,-6.0218 11.77246,-8.45291 5.39687,-3.22176 11.08191,-5.9552 16.95215,-8.19944 0.55728,-0.1977 1.41617,-0.52729 2.09449,-0.76907 6.63075,-2.36304 13.49079,-4.07955 20.45434,-5.109831 0.5629,-0.0791 1.4624,-0.20362 2.15596,-0.29484 7.23898,-0.93444 14.56573,-1.02169 21.84106,-0.50377 2.67741,0.15049 5.35492,0.29939 8.03228,0.45095 4.9461,-3.14828 9.75309,-6.59927 15.18777,-8.87995 10.03305,-4.423082 21.35997,-5.721204 32.15885,-3.904212 4.20113,0.67492 8.32135,1.80737 12.31744,3.262682 0.54772,0.21203 1.41637,0.52374 2.0805,0.79684 13.62897,5.41387 25.81099,14.040201 36.32101,24.191511 13.20796,12.84856 23.95999,28.30466 30.97563,45.36615 2.03753,4.96314 3.75345,10.21023 5.01739,15.333 0.95041,3.84917 1.70424,7.78529 2.24516,11.77504 0.79039,5.77203 1.14037,11.81724 1.02947,17.72606 -0.0304,1.75046 -0.10604,3.55628 -0.21603,5.36804 -0.0952,1.4404 -0.23546,3.18369 -0.38534,4.63416 -1.43074,14.16005 -5.39996,28.02086 -11.37941,40.92324 -0.25026,0.56574 -0.48888,1.48598 -0.79263,0.42323 -2.07929,-4.13009 -4.47235,-8.11582 -7.392,-11.71073 -5.15495,-6.41946 -11.50957,-12.04735 -19.04945,-15.48657 -7.70575,-3.666 -15.96464,-5.94548 -24.13284,-8.31922 -6.91044,-1.97953 -13.86862,-3.78622 -20.78826,-5.73364 -11.32352,-3.2721 -22.8456,-7.05557 -32.86621,-13.51965 -1.05872,-0.69555 -2.20512,-1.47425 -3.12154,-2.14049 -1.65832,-1.195 -3.25787,-2.46963 -4.81693,-3.79104 -0.3914,-0.3414 -1.04978,-0.9046 -1.53273,-1.34477 -6.76541,-6.09227 -12.80448,-13.03757 -17.5493,-20.82319 -0.19154,-0.33471 -0.61197,-1.0331 -0.89113,-1.50703 -3.30351,-5.71496 -6.04425,-11.79535 -7.67056,-18.20834 -1.44488,-5.50858 -2.71605,-11.09031 -3.29307,-16.76348 -0.23179,-1.81119 0.25169,-3.95202 -1.15501,-5.39615 -1.45695,-1.47282 -3.72759,-1.1684 -5.59545,-0.94932 -4.63886,0.70842 -9.27076,1.5587 -13.78954,2.84086 -9.87893,2.77537 -19.09152,7.81316 -26.8114,14.567 -6.9104,5.98307 -12.86943,13.15068 -16.9785,21.34447 -2.91609,5.65639 -4.87877,11.72854 -6.84244,17.76223 -0.68371,2.3226 -1.47811,5.01117 -0.21314,7.28046 1.32477,2.2552 4.03805,3.00326 6.39888,3.65489 5.81643,1.41638 11.72402,2.42598 17.55276,3.79152 1.70638,0.38668 3.41091,0.7826 5.10695,1.21179 -6.40266,4.67522 -13.19468,9.00149 -19.67111,13.71949 -1.32062,1.0213 -2.79421,1.90023 -3.91092,3.14965 -1.18505,1.72354 -0.63752,3.95156 -0.19392,5.83403 2.51845,9.57029 7.41828,18.44792 13.91188,25.8942 6.47714,7.49836 14.30006,13.68029 22.37152,19.36664 6.18901,4.62076 12.14091,9.56804 17.77809,14.84876 3.66923,3.5347 7.32508,7.08336 10.9879,10.62473 12.07374,-4.79031 24.08842,-9.73114 36.23242,-14.34179 -5.71479,9.89653 -11.97567,19.47406 -17.37979,29.54928 -0.54636,1.03902 -1.20541,2.23385 -0.66903,3.41361 1.61784,3.99809 4.29248,7.4358 6.41196,11.16486 5.08748,8.83512 9.40298,18.09978 13.24926,27.53594 3.30118,8.03957 5.78223,16.39683 7.64346,24.88123 0.13879,0.69473 0.35228,1.69742 0.51974,2.51035 5.21297,25.94755 4.40284,53.09081 -2.35919,78.67892 -0.42547,1.61057 -0.88264,3.21221 -1.35781,4.80877 -0.14395,0.46496 -0.40177,1.27189 -0.58935,1.86787 -3.27328,10.06968 -7.31976,19.88661 -11.99291,29.3858 -1.88164,3.89125 -4.07397,7.6169 -6.22561,11.36132 -1.25697,2.36541 -2.64499,4.70596 -3.43237,7.27955 -0.4235,1.8126 0.92039,3.38434 1.9348,4.73333 2.37265,2.82923 5.05099,5.47229 8.19501,7.4362 2.52038,1.58594 5.74797,1.99787 8.55084,0.9452 3.45365,-1.25349 6.3389,-3.65638 8.89937,-6.23091 11.04182,-10.70706 21.92527,-21.57614 32.84947,-32.40287 43.46585,-43.20666 86.78898,-86.56134 130.06466,-129.9608 25.84069,-25.94543 51.70024,-51.87361 77.37624,-77.98169 3.04728,-3.15095 6.17372,-6.23117 9.10422,-9.49159 1.8898,-2.50726 3.27346,-5.65491 2.73243,-8.85156 -0.30443,-1.65594 -0.86066,-3.32766 -1.84591,-4.70238 -3.9815,-4.38064 -8.18926,-8.55231 -12.31064,-12.80145 C 489.41551,220.27154 465.02099,195.78463 440.62522,171.29964 396.50677,127.06548 352.27022,82.944744 308.09,38.769878 295.15837,25.846521 282.22623,12.923679 269.29492,0 v 0 c -5.14661,-4.7119567 -5.33731,-4.6392907 -9.80407,-0.22127399 z M 272.3457,108.40234 c -2.5991,-0.004 -4.91557,1.60675 -6.32847,3.70528 -1.55331,2.23756 -3.08141,4.94532 -2.42348,7.76543 0.74322,2.9998 3.22403,5.10175 5.48998,7.01 5.24717,4.17858 10.92539,7.77016 16.43351,11.5874 0.75467,0.51376 1.50934,1.02751 2.26401,1.54127 0.41194,6.00806 0.52379,12.08036 1.92239,17.96765 1.36543,6.20851 3.86907,12.14227 7.26103,17.51363 1.72758,2.88105 3.45463,5.76243 5.18181,8.64372 0.41961,-7.16995 0.6985,-14.34904 1.21815,-21.51249 0.12405,-1.63638 0.32398,-3.35349 0.5592,-4.86837 0.32076,-2.11208 0.82319,-4.242 2.01562,-6.04883 1.6264,0.74054 3.10086,1.75953 4.57032,2.76563 0.32963,0.24236 0.97687,0.69809 1.42808,1.02213 4.79036,3.49058 9.46235,7.30752 13.92543,11.10677 4.83717,4.14172 9.54063,8.45736 13.77153,13.22569 5.89926,6.56153 11.63921,13.2781 16.97914,20.30506 1.01111,1.33429 1.9976,2.69917 2.70523,4.21906 0.63771,1.10117 2.11752,1.76406 3.27736,1.08108 1.25207,-0.60888 1.38747,-2.21054 0.99135,-3.4012 -1.13903,-3.76707 -2.91522,-7.30284 -4.5801,-10.85738 -3.98673,-8.19858 -8.35907,-16.22684 -13.48282,-23.77608 -5.13047,-7.75452 -11.02289,-14.99507 -17.536,-21.62941 -9.66698,-9.8892 -20.10007,-19.14038 -31.84353,-26.50583 -5.30994,-3.32888 -10.7832,-6.42703 -16.50119,-9.00199 -2.31262,-0.97497 -4.7499,-1.90443 -7.29855,-1.85822 z m 126.32813,122.05274 c 5.68406,5.66499 11.19324,11.51801 16.33015,17.68617 4.16937,5.11566 8.22779,10.62874 9.92102,17.11158 1.63446,6.27823 0.84884,12.85239 -0.18361,19.16026 -0.38878,1.76717 -0.61306,3.74911 -1.89178,5.13183 -1.87199,1.64753 -4.61927,1.25141 -6.80745,0.55412 -4.89675,-1.65896 -9.05518,-4.91407 -12.84397,-8.34425 -4.5084,-4.1072 -8.48756,-9.15187 -9.96979,-15.17596 -1.64932,-6.44658 -0.64537,-13.2102 0.91912,-19.56818 1.34002,-5.34536 3.34921,-10.59941 3.60639,-16.15518 0.12219,-0.30853 -0.26797,-1.60934 0.1722,-1.1133 0.24924,0.23764 0.49848,0.47527 0.74772,0.71291 z m -51.1211,18.1543 c 0.88639,4.16467 2.42649,8.15843 3.95946,12.12046 2.56372,6.31254 5.32526,12.69253 6.09959,19.52514 0.5506,4.60381 -0.46624,9.26277 -2.3468,13.46226 -1.63826,3.65076 -4.22541,6.79068 -6.96628,9.66898 -2.34661,2.328 -4.9246,4.81645 -8.29803,5.44278 -1.59394,0.33709 -3.67074,-0.0892 -4.30144,-1.78063 -1.79932,-4.05682 -2.97346,-8.37682 -3.77771,-12.7346 -0.71806,-4.11723 -1.00641,-8.32197 -0.68129,-12.49346 0.0405,-0.41884 0.10877,-1.19679 0.18352,-1.75141 0.41538,-3.44504 1.42157,-6.83613 3.20203,-9.82986 3.99447,-7.21351 8.24517,-14.2853 12.65759,-21.25039 0.0797,-0.10786 0.20912,-0.35017 0.26936,-0.37927 z m 44.71289,40.62304 c 1.28223,2.66933 2.60206,5.37715 4.65952,7.55106 3.84284,4.21581 8.92134,7.02128 12.95464,11.03314 1.10503,1.05699 2.1502,2.17777 3.11436,3.36502 0.24793,0.31828 0.7252,0.92199 1.04046,1.37337 2.15039,3.04562 3.77015,6.4728 4.80915,10.05046 1.47804,6.06704 1.29188,12.40165 0.63607,18.56798 -0.24264,2.06732 -0.56116,4.12542 -0.96029,6.16835 -0.0973,0.46282 -0.25971,1.284 -0.40038,1.88197 -1.1751,5.024 -2.70632,10.09361 -5.60949,14.4144 -0.58133,0.81771 -1.24214,1.59284 -2.04482,2.20167 -2.16868,-1.87609 -3.68291,-4.37449 -5.1422,-6.81213 -1.10944,-1.9491 -2.03203,-4.01716 -3.46031,-5.76772 -2.0182,-2.7002 -4.42276,-5.07554 -6.94268,-7.30258 -2.88813,-2.65983 -5.35976,-5.89513 -6.52712,-9.68768 -1.25026,-4.0004 -1.83084,-8.1874 -2.11909,-12.35957 -0.30857,-6.72193 1.28436,-13.32637 2.65484,-19.85732 1.09959,-4.96031 2.22727,-9.91436 3.3061,-14.87901 z m -16.8789,19.07227 c -2.28992,2.00239 -3.62057,4.82303 -4.96776,7.49206 -1.99774,4.28621 -3.73556,8.73771 -4.68897,13.38144 -1.10811,5.56979 -0.91082,11.2724 -0.97074,16.91881 -0.14151,4.60232 -0.37503,9.22773 -1.21661,13.76231 -2.11831,10.29722 -7.64533,19.95307 -15.83987,26.60451 -5.04777,4.08567 -11.01049,7.12352 -17.37604,8.48677 -5.12977,1.00349 -10.43527,1.26515 -15.62322,0.5755 -0.99535,-0.15388 -1.99048,-0.34888 -2.93789,-0.69797 3.34432,-2.50587 7.121,-4.37328 10.43598,-6.9252 2.83776,-2.06124 5.3189,-4.84562 6.23771,-8.30154 1.20016,-4.34035 0.9867,-8.89699 1.05987,-13.35565 0.0755,-4.07987 -0.17989,-8.20521 0.54447,-12.24106 0.68343,-3.09017 2.24537,-5.88581 3.60097,-8.71739 6.47352,-12.79013 16.51243,-23.84996 28.96103,-31.03474 3.95605,-2.25405 8.06827,-4.25681 12.32312,-5.88163 0.0937,-0.005 0.85686,-0.38218 0.45795,-0.0662 z" />
  </g>
</svg>
