<?xml version="1.0" encoding="UTF-8" standalone="no"?>
<!-- Created with Inkscape (http://www.inkscape.org/) -->

<svg
   version="1.1"
   id="svg1"
   width="818.68365"
   height="841.5451"
   viewBox="0 0 818.68366 841.54511"
   xmlns="http://www.w3.org/2000/svg"
   xmlns:svg="http://www.w3.org/2000/svg">
  <defs
     id="defs1" />
  <path
     style="fill:#000000"
     d="m 381.42224,841.12012 c -39.15868,-4.05314 -76.44383,-14.36123 -108,-29.85838 -16.15085,-7.93164 -36.66667,-20.55366 -36.66667,-22.55857 0,-0.59751 2.55,-1.47955 5.66667,-1.96009 23.01484,-3.54854 56.95474,-21.73865 73.43529,-39.3577 14.16899,-15.14779 19.14315,-27.8506 20.45431,-52.23543 0.97147,-18.06736 1.46045,-19.5175 5.79837,-17.19591 5.2411,2.80495 25.49677,9.31095 37.9787,12.19854 28.17875,6.51891 62.86054,1.99667 98.19882,-12.8044 1.93415,-0.8101 2.3093,0.8153 3.11668,13.50342 1.85622,29.17075 6.97156,41.71782 23.86211,58.52967 16.86339,16.78481 38.72836,28.94649 63.74181,35.45431 6.09432,1.58558 11.57498,3.30771 12.17925,3.82697 1.42838,1.22741 -14.35476,11.68643 -30.3136,20.08795 -28.88926,15.2087 -57.15513,24.27125 -93.45174,29.96231 -12.81434,2.0092 -64.13955,3.63494 -76,2.40731 z M 290.0889,705.36695 c -2.56666,-0.94662 -9.16666,-3.98577 -14.66666,-6.75368 -26.89547,-13.53528 -45.9614,-31.97549 -58.15244,-56.24392 l -5.48576,-10.92039 -0.84757,8.10909 c -1.74824,16.72628 0.3701,40.85557 5.31722,60.56644 0.78867,3.14234 0.58428,3.36224 -2.31656,2.49231 -7.57809,-2.27259 -23.96464,-13.91469 -34.5803,-24.56816 -29.60134,-29.70678 -43.89625,-70.89216 -42.35756,-122.03728 0.52734,-17.52819 0.38506,-19.11881 -1.61444,-18.04871 -6.54829,3.50454 -31.70793,35.09856 -42.296958,53.11408 -2.41527,4.10918 -3.70253,5.27564 -4.41426,4 -1.5769,-2.82628 -3.91804,-34.24314 -3.91804,-52.57798 0,-30.98265 6.60557,-80.12662 15.557958,-115.74775 10.3106,-41.02542 31.48377,-95.02838 48.02358,-122.48596 l 4.62479,-7.67758 -7.27908,-8.32242 C 117.10481,255.59083 99.890542,217.83356 93.483012,173.7715 c -2.68028,-18.4312 -2.68906,-56.18648 -0.0178,-76.760592 5.09252,-39.22351 17.853968,-76.848108 29.547598,-87.11525 5.86232,-5.147189 13.3969,-5.343664 22.3508,-0.58283 13.9465,7.415426 70.516,53.81095 118.72534,97.372692 13.2,11.92746 25.55859,22.91136 27.46353,24.40868 l 3.46352,2.72238 12.29091,-5.29889 c 26.7279,-11.52303 59.17727,-18.29359 93.44871,-19.49805 42.29638,-1.4865 79.8544,5.02889 111.04007,19.26272 9.00057,4.10806 10.77946,4.51734 13.44163,3.09259 1.68753,-0.90314 13.8195,-11.27873 26.95994,-23.05686 47.21586,-42.320882 111.60443,-94.320744 123.44623,-99.69451 8.58789,-3.897151 14.75801,-3.49576 20.23902,1.316626 10.56307,9.274497 22.16044,42.188832 28.42377,80.669082 2.99672,18.411062 3.40503,69.266052 0.67978,84.666662 -5.12865,28.98242 -14.48171,55.95988 -26.5209,76.49547 -7.4143,12.64679 -19.6984,29.46871 -28.00132,38.34521 l -5.93668,6.34679 3.93734,5.7396 c 15.76368,22.9793 42.02179,88.8778 51.56737,129.41577 11.70545,49.71042 16.67803,106.45922 12.7047,144.99051 -2.33666,22.65982 -1.44409,22.31441 -13.10524,5.07143 -13.82501,-20.4426 -21.1676,-29.77196 -29.96379,-38.07143 -4.08042,-3.85 -7.60487,-7.00034 -7.8321,-7.00074 -0.22723,-4.1e-4 -0.20765,10.99721 0.0435,24.43914 0.61142,32.72317 -3.34841,53.47604 -15.07609,79.01147 -12.06269,26.26486 -36.8539,51.61193 -59.89693,61.23993 -2.64933,1.10696 -4.81697,1.49567 -4.81697,0.86381 0,-0.63186 1.21299,-6.78991 2.69552,-13.68456 3.06283,-14.2439 4.70046,-41.59112 3.02532,-50.52038 l -1.12274,-5.98467 -4.77365,9.98467 c -8.49668,17.77182 -23.33215,34.54617 -41.41146,46.8236 -9.15683,6.21828 -30.68376,16.74855 -36.69779,17.95136 l -3.99439,0.79887 -0.82313,-11.12791 c -0.45271,-6.12036 -1.22482,-18.23247 -1.71578,-26.9158 l -0.89266,-15.78788 13.29403,-13.54546 c 20.90719,-21.3026 31.95148,-36.32898 44.98229,-61.20096 16.83788,-32.13855 27.43256,-67.50955 32.07927,-107.09866 2.54711,-21.70086 3.72124,-60.38645 2.41949,-79.71822 l -1.06432,-15.80572 -12,-3.05138 c -28.34384,-7.20732 -53.61401,-23.51251 -72.21494,-46.59558 -14.54547,-18.0504 -26.8143,-40.72382 -33.81614,-62.49394 l -2.92219,-9.08567 -4.32522,9.94951 c -18.98189,43.66493 -63.30768,83.0773 -117.89134,104.82335 -27.95873,11.13872 -56.76497,17.00271 -89.98255,18.31744 l -21.15237,0.83719 0.97143,-4.54474 c 0.53428,-2.49961 3.00285,-11.28799 5.4857,-19.52973 2.48286,-8.24175 4.51428,-15.29051 4.51428,-15.66391 0,-0.37341 -3.75,2.08507 -8.33333,5.46328 -10.40108,7.66626 -24.17975,14.72209 -36.33334,18.6057 l -9.33333,2.98241 -0.85529,7.79876 c -1.37366,12.52541 -1.23418,55.74894 0.236,73.13208 6.54624,77.40166 32.63822,137.79203 79.47676,183.95045 l 12.41122,12.23101 -1.26622,20.57594 c -0.69642,11.31677 -1.28187,23.42594 -1.30101,26.90927 -0.0389,7.08198 -0.96991,7.52168 -9.36813,4.42432 z M 192.75557,242.92316 c 2.56667,-5.23554 9.21546,-16.4759 14.7751,-24.97858 L 217.6391,202.48517 207.11442,189.21389 C 193.3651,171.87646 170.3331,137.3087 159.42223,117.63473 c -4.76666,-8.59504 -9.04989,-15.64192 -9.51827,-15.65973 -1.19235,-0.0453 -2.26812,6.38064 -3.90865,23.34786 -4.19384,43.37477 9.80793,94.58412 32.4916,118.83303 4.34926,4.64937 8.28895,8.41583 8.75487,8.36992 0.46592,-0.0459 2.94712,-4.36711 5.51379,-9.60265 z m 446.53038,2.24808 c 20.88926,-22.85617 33.45255,-61.40563 33.46455,-102.68328 0.005,-16.91138 -2.04378,-38.91071 -3.80042,-40.80956 -0.47364,-0.51199 -5.05513,6.38801 -10.18107,15.33333 -11.79727,20.58747 -30.46456,48.48689 -46.10873,68.91233 l -12.15259,15.86674 8.61466,13.74258 c 4.73806,7.55842 11.44827,18.99258 14.91158,25.40924 3.46331,6.41667 6.78229,11.66667 7.3755,11.66667 0.59321,0 4.13765,-3.34712 7.87652,-7.43805 z M 383.42224,655.28208 C 321.55658,640.0169 270.0851,578.72305 252.21204,499.03285 c -4.23002,-18.86032 -7.45647,-45.72349 -7.45647,-62.08205 v -12.34151 h 17.19206 c 78.58656,0 155.34699,-29.70933 207.75521,-80.40951 6.9994,-6.77129 12.91981,-11.51269 13.51203,-10.82121 0.57975,0.6769 5.00071,6.03072 9.82436,11.89739 22.34593,27.17777 48.50084,46.82538 72.88952,54.75473 l 7.17318,2.33217 -0.72014,31.45655 c -0.76781,33.53821 -3.05707,51.66781 -9.5655,75.75302 -23.842,88.23009 -86.89251,148.71422 -154.56502,148.27366 -9.63648,-0.0627 -18.33064,-0.96055 -24.82903,-2.56401 z M 335.10756,480.04256 c 9.17899,-2.4435 17.38801,-7.34643 23.35078,-13.9465 4.78322,-5.29445 9.626,-13.26911 8.65041,-14.2447 -0.28056,-0.28056 -7.07481,0.36348 -15.09831,1.43121 -8.02351,1.06773 -18.4882,1.94727 -23.25487,1.95453 -7.70217,0.0117 -34.65727,-2.49222 -50.41625,-4.68332 l -5.74958,-0.79942 2.22554,4.30374 c 3.16842,6.12705 13.5727,16.89003 19.92674,20.61375 11.47066,6.72225 27.35128,8.8352 40.36554,5.37071 z m 184.647,-3.14072 c 9.19936,-4.37073 18.57491,-12.95423 22.47112,-20.57276 1.39144,-2.72079 2.5299,-5.16911 2.5299,-5.44072 0,-0.2716 -3.75,0.33209 -8.33334,1.34155 -14.02382,3.0887 -45.89364,3.67339 -65.94453,1.20985 -9.68615,-1.19009 -18.27454,-2.1638 -19.08531,-2.1638 -2.45283,0 4.27338,10.55153 10.22097,16.03382 6.15274,5.6714 16.43399,11.32402 24.13677,13.27038 9.37336,2.36848 24.78654,0.70121 34.00442,-3.67832 z M 38.773035,573.39571 C 22.803629,544.83974 9.1223302,500.50358 2.5292422,455.94263 c -3.37660102,-22.82156 -3.37117002,-85.24198 0.0094,-108 7.4967098,-50.46795 19.7334928,-87.2604 42.6729898,-128.30527 3.7825,-6.7679 7.25058,-12.3179 7.70686,-12.33334 0.45627,-0.0154 1.23331,2.4967 1.72676,5.58252 1.34216,8.39341 6.84763,23.95018 12.70467,35.8995 l 5.20356,10.61612 -6.6212,17.35669 c -13.05617,34.22519 -20.69317,66.94786 -23.92603,102.51711 -2.11972,23.32207 -0.8951,61.61606 2.7289,85.33333 2.47077,16.16998 2.59748,19.76225 1.2463,35.33334 -0.82725,9.53333 -1.5915,31.88163 -1.69832,49.66289 -0.10683,17.78126 -0.31487,32.33126 -0.46231,32.33333 -0.14744,0.002 -2.41895,-3.84233 -5.047785,-8.54314 z M 774.61691,552.92202 c -0.0763,-15.93867 -0.85843,-37.37939 -1.73814,-47.64606 -1.47015,-17.15745 -1.37206,-20.12198 1.21327,-36.66667 3.64727,-23.34052 5.01109,-69.05869 2.72665,-91.40346 -3.4907,-34.14365 -10.06156,-62.45295 -22.36419,-96.35191 l -7.44622,-20.51749 3.04434,-6.86357 c 6.32679,-14.26398 12.39721,-31.14634 13.97423,-38.86357 l 1.63481,-8 4.20318,6.66667 c 6.60681,10.47908 20.84601,40.07186 26.05298,54.14492 9.25046,25.00151 15.86454,51.52892 20.40892,81.85508 1.90912,12.74013 2.38899,24.14967 2.3553,56 -0.0484,45.75 -1.9376,62.36249 -11.20432,98.52424 -6.28245,24.51615 -11.23438,38.25049 -20.72296,57.47576 -12.39087,25.10574 -11.97637,25.39102 -12.13785,-8.35394 z M 265.46935,50.385428 C 254.697,39.089781 252.55263,36.196216 254.13601,35.092484 265.67312,27.050303 301.93209,13.698194 327.42224,8.105348 358.69634,1.243433 371.07133,0 408.08891,0 c 37.0508,0 49.76235,1.279563 80.42297,8.095493 25.26197,5.615795 64.42755,20.223005 74.2437,27.689952 2.56985,1.954837 2.17478,2.522404 -10.88197,15.633333 l -13.54863,13.60484 -16.45137,-4.89535 C 479.23904,47.441693 455.0903,44.041018 407.42224,44.010992 c -52.11182,-0.03283 -72.61332,3.154745 -126.66667,19.694116 -1.25379,0.38363 -6.95713,-4.58598 -15.28622,-13.31968 z"
     id="path1" />
</svg>
